<svg xmlns="http://www.w3.org/2000/svg" width="23.871" height="18.269" viewBox="0 0 23.871 18.269"><defs><style>.a{fill:#fd936f;}</style></defs><g transform="translate(-2 -9)"><path class="a" d="M13.935,27.269,9.867,23.015H3.628A1.54,1.54,0,0,1,2,21.513V10.5A1.54,1.54,0,0,1,3.628,9H24.243a1.54,1.54,0,0,1,1.628,1.5V21.513a1.54,1.54,0,0,1-1.628,1.5H18ZM3.628,10a.494.494,0,0,0-.543.5V21.513a.494.494,0,0,0,.543.5h6.781l3.526,3.754,3.526-3.754h6.781a.494.494,0,0,0,.543-.5V10.5a.494.494,0,0,0-.543-.5Z" transform="translate(0)"/></g></svg>