<svg xmlns="http://www.w3.org/2000/svg" width="17.143" height="10" viewBox="0 0 17.143 10"><g transform="translate(-64 -144)"><g transform="translate(64 144)"><path d="M81.1,149.009C79.08,146.679,76.286,144,72.571,144a7.908,7.908,0,0,0-4.326,1.33,23.1,23.1,0,0,0-4.2,3.625L64,149l.3.308c2.46,2.518,4.585,4.692,8.272,4.692a8.5,8.5,0,0,0,4.83-1.625,23.619,23.619,0,0,0,3.5-3.071l.246-.246Zm-8.531-4.295a7.746,7.746,0,0,1,4.339,1.366,16.777,16.777,0,0,1,3.29,2.951c-1.71,1.728-4.277,4.254-7.629,4.254a7.3,7.3,0,0,1-4.205-1.259,21.636,21.636,0,0,1-3.4-3.027C67.6,146.335,69.8,144.714,72.571,144.714Z" transform="translate(-64 -144)"/><path d="M179.571,183.143A3.571,3.571,0,1,0,176,179.571,3.576,3.576,0,0,0,179.571,183.143Zm0-6.415a2.844,2.844,0,1,1-2.853,2.844A2.857,2.857,0,0,1,179.571,176.728Z" transform="translate(-171 -174.571)"/></g><path d="M211.667,210.143h0a1.434,1.434,0,0,1-1.42,1.429,1.477,1.477,0,0,1-1.437-1.46,1.45,1.45,0,0,1,1.429-1.4V208a2.15,2.15,0,1,0,2.143,2.152v-.009Z" transform="translate(-137.667 -61.143)"/></g></svg>