<svg xmlns="http://www.w3.org/2000/svg" width="30.009" height="30.992" viewBox="0 0 30.009 30.992"><defs><style>.a,.b,.c{fill:none;stroke-linecap:round;stroke-linejoin:round;}.a{stroke:#fff200;stroke-width:2px;}.b{stroke:#ed2024;stroke-width:0.13px;}.c{stroke:#231f20;}</style></defs><g transform="translate(-148.403 -156.858)"><g transform="translate(157.733 157.77)"><path d="M196.608,186.061a14.159,14.159,0,0,1-5.043,1.019H191.3a14.212,14.212,0,0,1-5.3-1.019c-.576-2.243-.825-7.74,1.465-11.8,2.162-3.838-1.01-8.369-1.724-9.735a.448.448,0,0,1-.02-.365.443.443,0,0,1,.257-.257c.789-.316,2.025-1.337,1.731-5a.451.451,0,0,1,.218-.423,13.275,13.275,0,0,1,1.354-.261.267.267,0,0,1,.04.167c-.1,1.107-.133,3.857,1.97,3.783h.081c2.046.024,2.013-2.688,1.916-3.785a.3.3,0,0,1,.036-.167,13.325,13.325,0,0,1,1.356.261.451.451,0,0,1,.218.423c-.292,3.659.948,4.68,1.733,5a.443.443,0,0,1,.257.257.448.448,0,0,1-.02.365c-.711,1.365-3.886,5.9-1.721,9.735C197.418,178.321,197.172,183.816,196.608,186.061Z" transform="translate(-185.609 -158.22)"/><g transform="translate(5.557 0.059)"><path class="a" d="M209.758,158.59c-.341,0-.085,28.436.017,28.7" transform="translate(-209.459 -158.562)"/><line class="b" x1="0.235" y1="0.097" transform="translate(0.166)"/><line class="b" x1="0.254" y1="0.012" transform="translate(0.095 0.631)"/><line class="b" x1="0.149" y1="0.021" transform="translate(0.135 0.147)"/><line class="b" x1="0.152" y1="0.014" transform="translate(0.121 0.27)"/><line class="b" x1="0.149" y1="0.012" transform="translate(0.111 0.391)"/><line class="b" x1="0.152" y1="0.009" transform="translate(0.102 0.51)"/><line class="b" x1="0.251" y1="0.014" transform="translate(0.095 0.669)"/><line class="b" x1="0.254" y1="0.009" transform="translate(0.069 1.264)"/><line class="b" x1="0.152" y1="0.007" transform="translate(0.088 0.789)"/><line class="b" x1="0.152" y1="0.005" transform="translate(0.083 0.908)"/><line class="b" x1="0.152" y1="0.005" transform="translate(0.078 1.027)"/><line class="b" x1="0.152" y1="0.005" transform="translate(0.073 1.145)"/><line class="b" x1="0.251" y1="0.007" transform="translate(0.069 1.304)"/><line class="b" x1="0.251" y1="0.007" transform="translate(0.052 1.897)"/><line class="b" x1="0.152" y1="0.005" transform="translate(0.064 1.422)"/><line class="b" x1="0.152" y1="0.005" transform="translate(0.062 1.541)"/><line class="b" x1="0.149" y1="0.005" transform="translate(0.059 1.66)"/><line class="b" x1="0.152" y1="0.005" transform="translate(0.055 1.778)"/><line class="b" x1="0.251" y1="0.005" transform="translate(0.052 1.937)"/><line class="b" x1="0.251" y1="0.005" transform="translate(0.04 2.53)"/><line class="b" x1="0.149" y1="0.002" transform="translate(0.05 2.055)"/><line class="b" x1="0.149" y1="0.002" transform="translate(0.047 2.174)"/><line class="b" x1="0.149" y1="0.002" transform="translate(0.045 2.293)"/><line class="b" x1="0.149" y1="0.002" transform="translate(0.043 2.411)"/><line class="b" x1="0.254" y1="0.005" transform="translate(0.038 2.57)"/><line class="b" x1="0.251" y1="0.002" transform="translate(0.031 3.163)"/><line class="b" x1="0.149" y1="0.002" transform="translate(0.038 2.688)"/><line class="b" x1="0.152" y1="0.002" transform="translate(0.036 2.807)"/><line class="b" x1="0.152" y1="0.002" transform="translate(0.033 2.926)"/><line class="b" x1="0.152" y1="0.002" transform="translate(0.031 3.044)"/><line class="b" x1="0.254" y1="0.002" transform="translate(0.028 3.203)"/><line class="b" x1="0.254" y1="0.002" transform="translate(0.021 3.796)"/><line class="b" x1="0.152" transform="translate(0.028 3.321)"/><line class="b" x1="0.152" transform="translate(0.026 3.44)"/><line class="b" x1="0.149" transform="translate(0.026 3.559)"/><line class="b" x1="0.152" transform="translate(0.024 3.677)"/><line class="b" x1="0.254" y1="0.002" transform="translate(0.021 3.834)"/><line class="b" x1="0.251" y1="0.002" transform="translate(0.017 4.426)"/><line class="b" x1="0.152" y1="0.002" transform="translate(0.021 3.952)"/><line class="b" x1="0.152" y1="0.002" transform="translate(0.019 4.071)"/><line class="b" x1="0.152" y1="0.002" transform="translate(0.019 4.189)"/><line class="b" x1="0.152" y1="0.002" transform="translate(0.017 4.308)"/><line class="b" x1="0.251" y1="0.002" transform="translate(0.017 4.467)"/><line class="b" x1="0.251" y1="0.002" transform="translate(0.012 5.059)"/><line class="b" x1="0.152" y1="0.002" transform="translate(0.014 4.585)"/><line class="b" x1="0.152" y1="0.002" transform="translate(0.014 4.704)"/><line class="b" x1="0.149" y1="0.002" transform="translate(0.014 4.822)"/><line class="b" x1="0.152" y1="0.002" transform="translate(0.012 4.941)"/><line class="b" x1="0.251" transform="translate(0.012 5.1)"/><line class="b" x1="0.254" transform="translate(0.007 5.692)"/><line class="b" x1="0.152" transform="translate(0.009 5.218)"/><line class="b" x1="0.152" transform="translate(0.009 5.337)"/><line class="b" x1="0.152" transform="translate(0.009 5.455)"/><line class="b" x1="0.149" transform="translate(0.009 5.574)"/><line class="b" x1="0.254" y1="0.002" transform="translate(0.007 5.78)"/><line class="b" x1="0.251" y1="0.002" transform="translate(0.005 6.378)"/><line class="b" x1="0.152" y1="0.002" transform="translate(0.007 5.899)"/><line class="b" x1="0.152" y1="0.002" transform="translate(0.007 6.019)"/><line class="b" x1="0.149" y1="0.002" transform="translate(0.007 6.139)"/><line class="b" x1="0.152" y1="0.002" transform="translate(0.005 6.258)"/><line class="b" x1="0.251" y1="0.002" transform="translate(0.005 6.418)"/><line class="b" x1="0.254" transform="translate(0.002 7.016)"/><line class="b" x1="0.152" transform="translate(0.005 6.538)"/><line class="b" x1="0.152" transform="translate(0.005 6.658)"/><line class="b" x1="0.149" transform="translate(0.005 6.777)"/><line class="b" x1="0.152" transform="translate(0.002 6.897)"/><line class="b" x1="0.254" transform="translate(0.002 7.057)"/><line class="b" x1="0.251" transform="translate(0.002 7.655)"/><line class="b" x1="0.152" transform="translate(0.002 7.176)"/><line class="b" x1="0.152" transform="translate(0.002 7.296)"/><line class="b" x1="0.152" transform="translate(0.002 7.416)"/><line class="b" x1="0.152" transform="translate(0.002 7.535)"/><line class="b" x1="0.251" y1="0.002" transform="translate(0.002 7.693)"/><line class="b" x1="0.254" transform="translate(0 8.293)"/><line class="b" x1="0.149" transform="translate(0.002 7.815)"/><line class="b" x1="0.152" transform="translate(0 7.935)"/><line class="b" x1="0.152" transform="translate(0 8.054)"/><line class="b" x1="0.152" transform="translate(0 8.174)"/><line class="b" x1="0.254" transform="translate(0 8.331)"/><line class="b" x1="0.254" transform="translate(0 8.929)"/><line class="b" x1="0.152" transform="translate(0 8.451)"/><line class="b" x1="0.152" transform="translate(0 8.571)"/><line class="b" x1="0.152" transform="translate(0 8.69)"/><line class="b" x1="0.152" transform="translate(0 8.81)"/><line class="b" x1="0.254" transform="translate(0 8.97)"/><line class="b" x1="0.254" transform="translate(0 9.568)"/><line class="b" x1="0.152" transform="translate(0 9.09)"/><line class="b" x1="0.152" transform="translate(0 9.209)"/><line class="b" x1="0.152" transform="translate(0 9.329)"/><line class="b" x1="0.152" transform="translate(0 9.448)"/><line class="b" x1="0.254" y2="0.002" transform="translate(0 9.606)"/><line class="b" x1="0.251" y2="0.002" transform="translate(0.002 10.204)"/><line class="b" x1="0.152" y2="0.002" transform="translate(0 9.726)"/><line class="b" x1="0.152" y2="0.002" transform="translate(0 9.845)"/><line class="b" x1="0.152" y2="0.002" transform="translate(0 9.965)"/><line class="b" x1="0.149" y2="0.002" transform="translate(0.002 10.084)"/><line class="b" x1="0.251" transform="translate(0.002 10.245)"/><line class="b" x1="0.251" transform="translate(0.002 10.842)"/><line class="b" x1="0.152" transform="translate(0.002 10.364)"/><line class="b" x1="0.152" transform="translate(0.002 10.484)"/><line class="b" x1="0.152" transform="translate(0.002 10.603)"/><line class="b" x1="0.152" transform="translate(0.002 10.723)"/><line class="b" x1="0.251" transform="translate(0.002 10.883)"/><line class="b" x1="0.251" transform="translate(0.005 11.481)"/><line class="b" x1="0.152" transform="translate(0.002 11.003)"/><line class="b" x1="0.152" transform="translate(0.002 11.122)"/><line class="b" x1="0.152" transform="translate(0.002 11.242)"/><line class="b" x1="0.149" transform="translate(0.005 11.361)"/><line class="b" x1="0.251" transform="translate(0.005 11.519)"/><line class="b" x1="0.254" y2="0.002" transform="translate(0.005 12.117)"/><line class="b" x1="0.152" transform="translate(0.005 11.639)"/><line class="b" x1="0.152" transform="translate(0.005 11.758)"/><line class="b" x1="0.152" y2="0.002" transform="translate(0.005 11.878)"/><line class="b" x1="0.152" y2="0.002" transform="translate(0.005 11.997)"/><line class="b" x1="0.254" transform="translate(0.005 12.158)"/><line class="b" x1="0.254" transform="translate(0.007 12.755)"/><line class="b" x1="0.149" transform="translate(0.007 12.277)"/><line class="b" x1="0.152" transform="translate(0.007 12.397)"/><line class="b" x1="0.152" transform="translate(0.007 12.516)"/><line class="b" x1="0.152" transform="translate(0.007 12.636)"/><line class="b" x1="0.254" y2="0.002" transform="translate(0.007 12.794)"/><line class="b" x1="0.254" y2="0.002" transform="translate(0.009 13.392)"/><line class="b" x1="0.149" transform="translate(0.009 12.916)"/><line class="b" x1="0.152" transform="translate(0.009 13.035)"/><line class="b" x1="0.152" transform="translate(0.009 13.155)"/><line class="b" x1="0.152" transform="translate(0.009 13.274)"/><line class="b" x1="0.254" transform="translate(0.009 13.432)"/><line class="b" x1="0.251" transform="translate(0.014 14.03)"/><line class="b" x1="0.152" transform="translate(0.012 13.552)"/><line class="b" x1="0.152" transform="translate(0.012 13.671)"/><line class="b" x1="0.152" transform="translate(0.012 13.791)"/><line class="b" x1="0.152" transform="translate(0.012 13.91)"/><line class="b" x1="0.251" transform="translate(0.014 14.071)"/><line class="b" x1="0.251" transform="translate(0.017 14.669)"/><line class="b" x1="0.152" transform="translate(0.014 14.19)"/><line class="b" x1="0.152" transform="translate(0.014 14.31)"/><line class="b" x1="0.152" transform="translate(0.014 14.429)"/><line class="b" x1="0.149" transform="translate(0.017 14.549)"/><line class="b" x1="0.251" y2="0.002" transform="translate(0.017 14.707)"/><line class="b" x1="0.254" y2="0.002" transform="translate(0.019 15.305)"/><line class="b" x1="0.152" y2="0.002" transform="translate(0.017 14.826)"/><line class="b" x1="0.149" y2="0.002" transform="translate(0.019 14.946)"/><line class="b" x1="0.152" y2="0.002" transform="translate(0.019 15.066)"/><line class="b" x1="0.152" y2="0.002" transform="translate(0.019 15.185)"/><line class="b" x1="0.254" transform="translate(0.019 15.345)"/><line class="b" x1="0.251" transform="translate(0.024 15.943)"/><line class="b" x1="0.152" transform="translate(0.021 15.465)"/><line class="b" x1="0.152" transform="translate(0.021 15.584)"/><line class="b" x1="0.152" transform="translate(0.021 15.704)"/><line class="b" x1="0.149" transform="translate(0.024 15.824)"/><line class="b" x1="0.251" y2="0.002" transform="translate(0.024 15.981)"/><line class="b" x1="0.251" y2="0.002" transform="translate(0.028 16.579)"/><line class="b" x1="0.152" transform="translate(0.024 16.103)"/><line class="b" x1="0.149" transform="translate(0.026 16.223)"/><line class="b" x1="0.152" transform="translate(0.026 16.343)"/><line class="b" x1="0.152" transform="translate(0.026 16.462)"/><line class="b" x1="0.251" y2="0.002" transform="translate(0.028 16.62)"/><line class="b" x1="0.254" y2="0.002" transform="translate(0.031 17.218)"/><line class="b" x1="0.152" y2="0.002" transform="translate(0.028 16.739)"/><line class="b" x1="0.152" y2="0.002" transform="translate(0.028 16.859)"/><line class="b" x1="0.149" y2="0.002" transform="translate(0.031 16.979)"/><line class="b" x1="0.152" y2="0.002" transform="translate(0.031 17.098)"/><line class="b" x1="0.254" transform="translate(0.031 17.258)"/><line class="b" x1="0.254" transform="translate(0.036 17.856)"/><line class="b" x1="0.152" transform="translate(0.033 17.378)"/><line class="b" x1="0.152" transform="translate(0.033 17.498)"/><line class="b" x1="0.149" transform="translate(0.036 17.617)"/><line class="b" x1="0.152" transform="translate(0.036 17.737)"/><line class="b" x1="0.254" y2="0.002" transform="translate(0.036 17.895)"/><line class="b" x1="0.254" y2="0.002" transform="translate(0.04 18.492)"/><line class="b" x1="0.152" transform="translate(0.038 18.016)"/><line class="b" x1="0.152" y2="0.002" transform="translate(0.038 18.134)"/><line class="b" x1="0.152" y2="0.002" transform="translate(0.038 18.253)"/><line class="b" x1="0.152" y2="0.002" transform="translate(0.04 18.373)"/><line class="b" x1="0.254" y2="0.002" transform="translate(0.04 18.533)"/><line class="b" x1="0.254" y2="0.002" transform="translate(0.045 19.131)"/><line class="b" x1="0.152" y2="0.002" transform="translate(0.043 18.653)"/><line class="b" x1="0.152" y2="0.002" transform="translate(0.043 18.772)"/><line class="b" x1="0.149" y2="0.002" transform="translate(0.045 18.892)"/><line class="b" x1="0.152" y2="0.002" transform="translate(0.045 19.011)"/><line class="b" x1="0.251" y2="0.002" transform="translate(0.047 19.169)"/><line class="b" x1="0.251" y2="0.002" transform="translate(0.052 19.767)"/><line class="b" x1="0.152" transform="translate(0.047 19.291)"/><line class="b" x1="0.152" transform="translate(0.047 19.411)"/><line class="b" x1="0.152" transform="translate(0.05 19.53)"/><line class="b" x1="0.152" transform="translate(0.05 19.65)"/><line class="b" x1="0.251" y2="0.002" transform="translate(0.052 19.808)"/><line class="b" x1="0.251" y2="0.002" transform="translate(0.057 20.405)"/><line class="b" x1="0.152" y2="0.002" transform="translate(0.052 19.927)"/><line class="b" x1="0.149" y2="0.002" transform="translate(0.055 20.047)"/><line class="b" x1="0.152" y2="0.002" transform="translate(0.055 20.166)"/><line class="b" x1="0.149" y2="0.002" transform="translate(0.057 20.286)"/><line class="b" x1="0.254" y2="0.002" transform="translate(0.057 20.446)"/><line class="b" x1="0.254" y2="0.002" transform="translate(0.062 21.044)"/><line class="b" x1="0.149" y2="0.002" transform="translate(0.059 20.566)"/><line class="b" x1="0.152" y2="0.002" transform="translate(0.059 20.685)"/><line class="b" x1="0.149" y2="0.002" transform="translate(0.062 20.805)"/><line class="b" x1="0.152" y2="0.002" transform="translate(0.062 20.924)"/><line class="b" x1="0.251" y2="0.002" transform="translate(0.064 21.082)"/><line class="b" x1="0.251" y2="0.002" transform="translate(0.069 21.68)"/><line class="b" x1="0.152" transform="translate(0.064 21.204)"/><line class="b" x1="0.149" transform="translate(0.066 21.324)"/><line class="b" x1="0.152" transform="translate(0.066 21.443)"/><line class="b" x1="0.149" transform="translate(0.069 21.563)"/><line class="b" x1="0.254" y2="0.002" transform="translate(0.069 21.721)"/><line class="b" x1="0.251" y2="0.002" transform="translate(0.076 22.319)"/><line class="b" x1="0.152" y2="0.002" transform="translate(0.071 21.84)"/><line class="b" x1="0.152" y2="0.002" transform="translate(0.071 21.96)"/><line class="b" x1="0.152" y2="0.002" transform="translate(0.073 22.079)"/><line class="b" x1="0.152" y2="0.002" transform="translate(0.073 22.199)"/><line class="b" x1="0.251" y2="0.002" transform="translate(0.076 22.357)"/><line class="b" x1="0.251" y2="0.002" transform="translate(0.083 22.955)"/><line class="b" x1="0.149" transform="translate(0.078 22.479)"/><line class="b" x1="0.152" transform="translate(0.078 22.598)"/><line class="b" x1="0.149" transform="translate(0.081 22.718)"/><line class="b" x1="0.152" transform="translate(0.081 22.837)"/><line class="b" x1="0.251" y2="0.002" transform="translate(0.083 23.045)"/><line class="b" x1="0.251" y2="0.002" transform="translate(0.09 23.637)"/><line class="b" x1="0.152" y2="0.002" transform="translate(0.083 23.163)"/><line class="b" x1="0.152" y2="0.002" transform="translate(0.085 23.282)"/><line class="b" x1="0.149" y2="0.002" transform="translate(0.088 23.4)"/><line class="b" x1="0.152" y2="0.002" transform="translate(0.088 23.519)"/><line class="b" x1="0.251" y2="0.005" transform="translate(0.09 23.675)"/><line class="b" x1="0.251" y2="0.005" transform="translate(0.097 24.268)"/><line class="b" x1="0.149" y2="0.002" transform="translate(0.092 23.796)"/><line class="b" x1="0.152" y2="0.002" transform="translate(0.092 23.915)"/><line class="b" x1="0.152" y2="0.002" transform="translate(0.095 24.033)"/><line class="b" x1="0.152" y2="0.002" transform="translate(0.095 24.152)"/><line class="b" x1="0.254" y2="0.002" transform="translate(0.097 24.308)"/><line class="b" x1="0.254" y2="0.002" transform="translate(0.104 24.901)"/><line class="b" x1="0.152" transform="translate(0.1 24.429)"/><line class="b" x1="0.149" transform="translate(0.102 24.548)"/><line class="b" x1="0.152" transform="translate(0.102 24.666)"/><line class="b" x1="0.152" transform="translate(0.104 24.785)"/><line class="b" x1="0.251" y2="0.002" transform="translate(0.107 24.941)"/><line class="b" x1="0.254" y2="0.002" transform="translate(0.114 25.534)"/><line class="b" x1="0.152" y2="0.002" transform="translate(0.107 25.06)"/><line class="b" x1="0.152" y2="0.002" transform="translate(0.109 25.178)"/><line class="b" x1="0.152" y2="0.002" transform="translate(0.111 25.297)"/><line class="b" x1="0.152" y2="0.002" transform="translate(0.111 25.415)"/><line class="b" x1="0.254" y2="0.005" transform="translate(0.114 25.572)"/><line class="b" x1="0.254" y2="0.005" transform="translate(0.123 26.165)"/><line class="b" x1="0.152" y2="0.002" transform="translate(0.116 25.693)"/><line class="b" x1="0.152" y2="0.002" transform="translate(0.119 25.811)"/><line class="b" x1="0.149" y2="0.002" transform="translate(0.121 25.93)"/><line class="b" x1="0.152" y2="0.002" transform="translate(0.121 26.048)"/><line class="b" x1="0.254" y2="0.002" transform="translate(0.123 26.205)"/><line class="b" x1="0.251" y2="0.002" transform="translate(0.135 26.797)"/><line class="b" x1="0.152" y2="0.002" transform="translate(0.126 26.323)"/><line class="b" x1="0.152" y2="0.002" transform="translate(0.128 26.442)"/><line class="b" x1="0.152" y2="0.002" transform="translate(0.13 26.56)"/><line class="b" x1="0.152" y2="0.002" transform="translate(0.133 26.679)"/><line class="b" x1="0.251" y2="0.005" transform="translate(0.135 26.835)"/><line class="b" x1="0.251" y2="0.005" transform="translate(0.147 27.428)"/><line class="b" x1="0.152" y2="0.002" transform="translate(0.138 26.956)"/><line class="b" x1="0.152" y2="0.002" transform="translate(0.14 27.075)"/><line class="b" x1="0.149" y2="0.002" transform="translate(0.142 27.193)"/><line class="b" x1="0.149" y2="0.002" transform="translate(0.145 27.312)"/><line class="b" x1="0.251" y2="0.005" transform="translate(0.147 27.468)"/><line class="b" x1="0.251" y2="0.007" transform="translate(0.161 28.059)"/><line class="b" x1="0.152" y2="0.005" transform="translate(0.149 27.587)"/><line class="b" x1="0.152" y2="0.005" transform="translate(0.152 27.706)"/><line class="b" x1="0.152" y2="0.005" transform="translate(0.154 27.824)"/><line class="b" x1="0.152" y2="0.005" transform="translate(0.156 27.943)"/><line class="b" x1="0.254" y2="0.007" transform="translate(0.161 28.099)"/><line class="b" x1="0.249" y2="0.028" transform="translate(0.187 28.68)"/><line class="b" x1="0.149" y2="0.005" transform="translate(0.166 28.22)"/><line class="b" x1="0.152" y2="0.005" transform="translate(0.168 28.338)"/><line class="b" x1="0.152" y2="0.005" transform="translate(0.173 28.457)"/><line class="b" x1="0.152" y2="0.007" transform="translate(0.178 28.576)"/></g></g><path class="c" d="M177.912,172.132a14.494,14.494,0,0,1-14.234,14.5h-.263a14.5,14.5,0,0,1-3.4-28.6,13.477,13.477,0,0,1,1.365-.261,14.312,14.312,0,0,1,2.039-.143h.239a14.239,14.239,0,0,1,1.791.141,13.526,13.526,0,0,1,1.367.261A14.5,14.5,0,0,1,177.912,172.132Z" transform="translate(0 0)"/></g></svg>