<svg xmlns="http://www.w3.org/2000/svg" width="30.025" height="30.259" viewBox="0 0 30.025 30.259"><defs><style>.a,.b,.c,.d{fill:none;}.b{stroke:#fff200;stroke-width:2px;}.b,.c,.d{stroke-linecap:round;stroke-linejoin:round;}.c{stroke:#ed2024;stroke-width:0.13px;}.d{stroke:#231f20;}</style></defs><g transform="translate(-164.962 -327.582)"><g transform="translate(165.487 328.324)"><g transform="translate(1.861 0.683)"><path class="a" d="M179.72,379.93a14.5,14.5,0,0,0,14,0" transform="translate(-174.083 -353.429)"/><path d="M177.406,329.62c-.216,2.444-.285,8.5,4.378,8.333h.063c4.663.163,4.594-5.889,4.378-8.333l3.54,1.691c-.485,7.607,2.171,9.772,3.888,10.451a.969.969,0,0,1,.606.711h0a.958.958,0,0,1-.09.653c-1.054,2.028-4.626,7.227-5.353,12.99a14.507,14.507,0,0,1-14,0c-.727-5.763-4.283-10.962-5.353-12.99a.958.958,0,0,1-.095-.622,1,1,0,0,1,.616-.748c1.712-.68,4.373-2.845,3.883-10.451Z" transform="translate(-169.176 -329.62)"/><g transform="translate(0 12.653)"><path class="b" d="M169.35,353.967c0,.759,24.931.722,24.931-.037" transform="translate(-169.176 -353.777)"/><line class="c" x1="0.385" y2="0.411" transform="translate(0 0.037)"/><line class="c" x1="0.047" y2="0.558" transform="translate(1.459 0.195)"/><line class="c" x1="0.079" y2="0.327" transform="translate(0.374 0.279)"/><line class="c" x1="0.053" y2="0.332" transform="translate(0.653 0.327)"/><line class="c" x1="0.042" y2="0.337" transform="translate(0.922 0.364)"/><line class="c" x1="0.037" y2="0.332" transform="translate(1.191 0.395)"/><line class="c" x1="0.047" y2="0.558" transform="translate(1.533 0.205)"/><line class="c" x1="0.032" y2="0.564" transform="translate(2.856 0.29)"/><line class="c" x1="0.026" y2="0.337" transform="translate(1.797 0.448)"/><line class="c" x1="0.026" y2="0.332" transform="translate(2.06 0.469)"/><line class="c" x1="0.021" y2="0.337" transform="translate(2.329 0.485)"/><line class="c" x1="0.016" y2="0.337" transform="translate(2.592 0.501)"/><line class="c" x1="0.032" y2="0.558" transform="translate(2.929 0.295)"/><line class="c" x1="0.016" y2="0.564" transform="translate(4.252 0.353)"/><line class="c" x1="0.016" y2="0.337" transform="translate(3.193 0.532)"/><line class="c" x1="0.016" y2="0.332" transform="translate(3.456 0.548)"/><line class="c" x1="0.016" y2="0.337" transform="translate(3.72 0.558)"/><line class="c" x1="0.016" y2="0.337" transform="translate(3.983 0.569)"/><line class="c" x1="0.016" y2="0.558" transform="translate(4.326 0.358)"/><line class="c" x1="0.016" y2="0.558" transform="translate(5.643 0.4)"/><line class="c" x1="0.011" y2="0.337" transform="translate(4.589 0.59)"/><line class="c" x1="0.011" y2="0.332" transform="translate(4.852 0.601)"/><line class="c" x1="0.011" y2="0.337" transform="translate(5.116 0.606)"/><line class="c" x1="0.011" y2="0.337" transform="translate(5.379 0.616)"/><line class="c" x1="0.016" y2="0.558" transform="translate(5.716 0.4)"/><line class="c" x1="0.011" y2="0.558" transform="translate(7.034 0.432)"/><line class="c" x1="0.011" y2="0.337" transform="translate(5.98 0.632)"/><line class="c" x1="0.011" y2="0.337" transform="translate(6.243 0.637)"/><line class="c" x1="0.011" y2="0.337" transform="translate(6.507 0.643)"/><line class="c" x1="0.011" y2="0.337" transform="translate(6.77 0.648)"/><line class="c" x1="0.011" y2="0.558" transform="translate(7.107 0.432)"/><line class="c" x1="0.005" y2="0.558" transform="translate(8.43 0.453)"/><line class="c" x1="0.005" y2="0.337" transform="translate(7.371 0.659)"/><line class="c" x1="0.005" y2="0.337" transform="translate(7.634 0.664)"/><line class="c" x1="0.005" y2="0.337" transform="translate(7.898 0.669)"/><line class="c" y2="0.337" transform="translate(8.166 0.674)"/><line class="c" x1="0.005" y2="0.558" transform="translate(8.504 0.453)"/><line class="c" x1="0.005" y2="0.558" transform="translate(9.821 0.469)"/><line class="c" y2="0.337" transform="translate(8.767 0.68)"/><line class="c" y2="0.337" transform="translate(9.03 0.685)"/><line class="c" y2="0.337" transform="translate(9.294 0.685)"/><line class="c" y2="0.337" transform="translate(9.557 0.69)"/><line class="c" x1="0.005" y2="0.558" transform="translate(9.894 0.469)"/><line class="c" y2="0.558" transform="translate(11.212 0.474)"/><line class="c" y2="0.332" transform="translate(10.158 0.695)"/><line class="c" y2="0.337" transform="translate(10.421 0.695)"/><line class="c" y2="0.337" transform="translate(10.685 0.695)"/><line class="c" y2="0.337" transform="translate(10.948 0.695)"/><line class="c" y2="0.558" transform="translate(11.285 0.474)"/><line class="c" y2="0.564" transform="translate(12.603 0.474)"/><line class="c" y2="0.337" transform="translate(11.549 0.701)"/><line class="c" y2="0.337" transform="translate(11.812 0.701)"/><line class="c" y2="0.337" transform="translate(12.076 0.701)"/><line class="c" y2="0.337" transform="translate(12.339 0.701)"/><line class="c" y2="0.564" transform="translate(12.676 0.474)"/><line class="c" x2="0.005" y2="0.564" transform="translate(13.993 0.469)"/><line class="c" y2="0.337" transform="translate(12.94 0.701)"/><line class="c" y2="0.332" transform="translate(13.203 0.701)"/><line class="c" y2="0.337" transform="translate(13.467 0.695)"/><line class="c" y2="0.337" transform="translate(13.73 0.695)"/><line class="c" x2="0.005" y2="0.564" transform="translate(14.067 0.469)"/><line class="c" x2="0.005" y2="0.558" transform="translate(15.384 0.458)"/><line class="c" x2="0.005" y2="0.337" transform="translate(14.331 0.69)"/><line class="c" x2="0.005" y2="0.337" transform="translate(14.594 0.69)"/><line class="c" x2="0.005" y2="0.332" transform="translate(14.858 0.69)"/><line class="c" x2="0.005" y2="0.337" transform="translate(15.121 0.685)"/><line class="c" x2="0.005" y2="0.558" transform="translate(15.458 0.458)"/><line class="c" x2="0.011" y2="0.558" transform="translate(16.77 0.443)"/><line class="c" x2="0.005" y2="0.337" transform="translate(15.722 0.68)"/><line class="c" x2="0.005" y2="0.337" transform="translate(15.985 0.674)"/><line class="c" x2="0.005" y2="0.332" transform="translate(16.248 0.674)"/><line class="c" x2="0.005" y2="0.337" transform="translate(16.512 0.669)"/><line class="c" x2="0.011" y2="0.564" transform="translate(16.844 0.437)"/><line class="c" x2="0.011" y2="0.558" transform="translate(18.161 0.416)"/><line class="c" x2="0.005" y2="0.337" transform="translate(17.112 0.659)"/><line class="c" x2="0.005" y2="0.337" transform="translate(17.376 0.653)"/><line class="c" x2="0.005" y2="0.337" transform="translate(17.639 0.648)"/><line class="c" x2="0.005" y2="0.337" transform="translate(17.903 0.643)"/><line class="c" x2="0.011" y2="0.564" transform="translate(18.235 0.411)"/><line class="c" x2="0.021" y2="0.558" transform="translate(19.547 0.379)"/><line class="c" x2="0.005" y2="0.332" transform="translate(18.503 0.632)"/><line class="c" x2="0.005" y2="0.337" transform="translate(18.767 0.622)"/><line class="c" x2="0.005" y2="0.337" transform="translate(19.03 0.616)"/><line class="c" x2="0.011" y2="0.337" transform="translate(19.294 0.611)"/><line class="c" x2="0.021" y2="0.564" transform="translate(19.62 0.374)"/><line class="c" x2="0.021" y2="0.558" transform="translate(20.937 0.332)"/><line class="c" x2="0.011" y2="0.337" transform="translate(19.894 0.59)"/><line class="c" x2="0.011" y2="0.332" transform="translate(20.158 0.585)"/><line class="c" x2="0.011" y2="0.337" transform="translate(20.421 0.574)"/><line class="c" x2="0.016" y2="0.337" transform="translate(20.679 0.564)"/><line class="c" x2="0.021" y2="0.558" transform="translate(21.011 0.327)"/><line class="c" x2="0.032" y2="0.558" transform="translate(22.323 0.263)"/><line class="c" x2="0.016" y2="0.332" transform="translate(21.28 0.543)"/><line class="c" x2="0.016" y2="0.337" transform="translate(21.543 0.527)"/><line class="c" x2="0.016" y2="0.337" transform="translate(21.807 0.516)"/><line class="c" x2="0.016" y2="0.337" transform="translate(22.07 0.501)"/><line class="c" x2="0.037" y2="0.558" transform="translate(22.392 0.263)"/><line class="c" x2="0.053" y2="0.558" transform="translate(23.698 0.169)"/><line class="c" x2="0.021" y2="0.337" transform="translate(22.671 0.469)"/><line class="c" x2="0.021" y2="0.332" transform="translate(22.934 0.453)"/><line class="c" x2="0.026" y2="0.337" transform="translate(23.192 0.432)"/><line class="c" x2="0.026" y2="0.332" transform="translate(23.456 0.416)"/><line class="c" x2="0.053" y2="0.558" transform="translate(23.772 0.163)"/><line class="c" x2="0.39" y2="0.406" transform="translate(24.889)"/><line class="c" x2="0.037" y2="0.332" transform="translate(24.051 0.358)"/><line class="c" x2="0.042" y2="0.332" transform="translate(24.315 0.327)"/><line class="c" x2="0.053" y2="0.332" transform="translate(24.573 0.29)"/><line class="c" x2="0.079" y2="0.327" transform="translate(24.826 0.242)"/></g></g><path class="d" d="M194.487,342.819a14.5,14.5,0,1,1-6.549-12.116A14.5,14.5,0,0,1,194.487,342.819Z" transform="translate(-165.487 -328.324)"/></g></g></svg>