<svg xmlns="http://www.w3.org/2000/svg" width="17.603" height="17.601" viewBox="0 0 17.603 17.601"><defs><style>.a{fill:#ffca00;}</style></defs><g transform="translate(16.064 -1.744)"><g transform="translate(-16.064 1.744)"><path class="a" d="M18.5,7.043a.343.343,0,0,0,.078-.356.305.305,0,0,0-.242-.214l-5.231-.8a.933.933,0,0,1-.7-.53L10.066.179a.29.29,0,0,0-.536,0L7.191,5.147a.933.933,0,0,1-.7.53l-5.232.8a.305.305,0,0,0-.242.214.344.344,0,0,0,.078.356L4.88,10.909a.979.979,0,0,1,.262.842l-.893,5.459a.335.335,0,0,0,.134.337.273.273,0,0,0,.3.017L9.36,14.987a.9.9,0,0,1,.877,0l4.679,2.578a.272.272,0,0,0,.3-.017.335.335,0,0,0,.134-.337l-.894-5.46a.98.98,0,0,1,.263-.842Zm-4.824,4.836.687,4.2a.157.157,0,0,1-.231.163L10.616,14.3a1.72,1.72,0,0,0-1.634,0L5.462,16.237a.157.157,0,0,1-.231-.163l.687-4.2h0a1.767,1.767,0,0,0-.477-1.519L2.479,7.334a.157.157,0,0,1,.089-.265l4.041-.615A1.718,1.718,0,0,0,7.9,5.482L9.656,1.757a.164.164,0,0,1,.284,0l1.754,3.725a1.72,1.72,0,0,0,1.293.972l4.041.615a.157.157,0,0,1,.089.265L14.155,10.36A1.768,1.768,0,0,0,13.678,11.879Z" transform="translate(-0.997 0)"/><path class="a" d="M17.133,11.547A2.033,2.033,0,0,1,15.6,10.4L13.99,6.976,12.378,10.4a2.032,2.032,0,0,1-1.53,1.148l-3.738.569,2.747,2.806a2.081,2.081,0,0,1,.563,1.79l-.634,3.877,3.236-1.783a2.006,2.006,0,0,1,1.938,0l3.235,1.782-.634-3.876a2.082,2.082,0,0,1,.562-1.79l2.748-2.807Z" transform="translate(-5.189 -4.783)"/></g></g></svg>