<svg xmlns="http://www.w3.org/2000/svg" width="30.02" height="30.036" viewBox="0 0 30.02 30.036"><defs><style>.a,.b,.c{fill:none;stroke-linecap:round;stroke-linejoin:round;}.a{stroke:#fff200;stroke-width:2px;}.b{stroke:#ed2024;stroke-width:0.13px;}.c{stroke:#231f20;}</style></defs><g transform="translate(-94.016 -46.012)"><g transform="translate(98.06 46.53)"><path d="M129.975,70.418a14.362,14.362,0,0,1-21.955,0,28.349,28.349,0,0,1,2.5-5.988,12.288,12.288,0,0,0,1.393-3.8c.767-3.888-.33-7.833-1.733-11.071q.442-.339.905-.653a14.008,14.008,0,0,1,3.528-1.691,14.362,14.362,0,0,1,8.772,0,14.008,14.008,0,0,1,3.521,1.691q.473.306.913.653c-1.4,3.233-2.485,7.157-1.741,11.035a12.585,12.585,0,0,0,1.406,3.834,28.467,28.467,0,0,1,2.493,5.988Z" transform="translate(-108.02 -46.53)"/><g transform="translate(3.375 13.879)"><path class="a" d="M122.36,100.672c0,.784,14.949.732,14.949-.042" transform="translate(-122.232 -100.612)"/><line class="b" x1="0.269" y2="0.071" transform="translate(0 0.042)"/><line class="b" x1="0.05" y2="0.272" transform="translate(0.703 0.167)"/><line class="b" x1="0.076" y2="0.149" transform="translate(0.162 0.139)"/><line class="b" x1="0.052" y2="0.159" transform="translate(0.303 0.186)"/><line class="b" x1="0.039" y2="0.162" transform="translate(0.439 0.222)"/><line class="b" x1="0.037" y2="0.165" transform="translate(0.57 0.251)"/><line class="b" x1="0.05" y2="0.274" transform="translate(0.737 0.173)"/><line class="b" x1="0.031" y2="0.274" transform="translate(1.393 0.261)"/><line class="b" x1="0.026" y2="0.165" transform="translate(0.868 0.303)"/><line class="b" x1="0.024" y2="0.167" transform="translate(1.001 0.322)"/><line class="b" x1="0.021" y2="0.165" transform="translate(1.132 0.34)"/><line class="b" x1="0.018" y2="0.167" transform="translate(1.262 0.355)"/><line class="b" x1="0.029" y2="0.277" transform="translate(1.427 0.264)"/><line class="b" x1="0.021" y2="0.28" transform="translate(2.083 0.322)"/><line class="b" x1="0.018" y2="0.167" transform="translate(1.558 0.387)"/><line class="b" x1="0.016" y2="0.167" transform="translate(1.689 0.4)"/><line class="b" x1="0.016" y2="0.165" transform="translate(1.819 0.413)"/><line class="b" x1="0.013" y2="0.167" transform="translate(1.953 0.423)"/><line class="b" x1="0.021" y2="0.28" transform="translate(2.117 0.324)"/><line class="b" x1="0.016" y2="0.277" transform="translate(2.771 0.369)"/><line class="b" x1="0.01" y2="0.165" transform="translate(2.248 0.447)"/><line class="b" x1="0.01" y2="0.167" transform="translate(2.379 0.455)"/><line class="b" x1="0.01" y2="0.167" transform="translate(2.509 0.463)"/><line class="b" x1="0.01" y2="0.165" transform="translate(2.64 0.473)"/><line class="b" x1="0.016" y2="0.277" transform="translate(2.805 0.371)"/><line class="b" x1="0.013" y2="0.28" transform="translate(3.458 0.403)"/><line class="b" x1="0.008" y2="0.167" transform="translate(2.935 0.489)"/><line class="b" x1="0.008" y2="0.167" transform="translate(3.066 0.497)"/><line class="b" x1="0.008" y2="0.167" transform="translate(3.197 0.502)"/><line class="b" x1="0.008" y2="0.165" transform="translate(3.327 0.51)"/><line class="b" x1="0.013" y2="0.277" transform="translate(3.492 0.405)"/><line class="b" x1="0.008" y2="0.277" transform="translate(4.148 0.431)"/><line class="b" x1="0.008" y2="0.167" transform="translate(3.623 0.523)"/><line class="b" x1="0.008" y2="0.167" transform="translate(3.753 0.528)"/><line class="b" x1="0.008" y2="0.167" transform="translate(3.884 0.533)"/><line class="b" x1="0.008" y2="0.165" transform="translate(4.015 0.538)"/><line class="b" x1="0.01" y2="0.28" transform="translate(4.18 0.431)"/><line class="b" x1="0.005" y2="0.28" transform="translate(4.836 0.45)"/><line class="b" x1="0.005" y2="0.167" transform="translate(4.313 0.546)"/><line class="b" x1="0.003" y2="0.167" transform="translate(4.444 0.552)"/><line class="b" x1="0.003" y2="0.167" transform="translate(4.574 0.554)"/><line class="b" x1="0.003" y2="0.165" transform="translate(4.705 0.559)"/><line class="b" x1="0.005" y2="0.277" transform="translate(4.87 0.452)"/><line class="b" x1="0.005" y2="0.277" transform="translate(5.523 0.465)"/><line class="b" x1="0.003" y2="0.167" transform="translate(5 0.565)"/><line class="b" x1="0.003" y2="0.165" transform="translate(5.131 0.57)"/><line class="b" x1="0.003" y2="0.167" transform="translate(5.262 0.572)"/><line class="b" x1="0.003" y2="0.165" transform="translate(5.392 0.575)"/><line class="b" x1="0.005" y2="0.28" transform="translate(5.557 0.465)"/><line class="b" x1="0.003" y2="0.277" transform="translate(6.21 0.476)"/><line class="b" x1="0.003" y2="0.165" transform="translate(5.688 0.58)"/><line class="b" x1="0.003" y2="0.167" transform="translate(5.818 0.58)"/><line class="b" x1="0.003" y2="0.167" transform="translate(5.949 0.583)"/><line class="b" x1="0.003" y2="0.165" transform="translate(6.08 0.586)"/><line class="b" x1="0.003" y2="0.277" transform="translate(6.244 0.476)"/><line class="b" y2="0.277" transform="translate(6.901 0.481)"/><line class="b" x1="0.003" y2="0.167" transform="translate(6.375 0.588)"/><line class="b" x1="0.003" y2="0.167" transform="translate(6.506 0.588)"/><line class="b" x1="0.003" y2="0.165" transform="translate(6.637 0.591)"/><line class="b" x1="0.003" y2="0.167" transform="translate(6.767 0.591)"/><line class="b" x1="0.003" y2="0.277" transform="translate(6.932 0.481)"/><line class="b" y2="0.277" transform="translate(7.588 0.481)"/><line class="b" y2="0.167" transform="translate(7.065 0.591)"/><line class="b" y2="0.167" transform="translate(7.196 0.591)"/><line class="b" y2="0.167" transform="translate(7.327 0.591)"/><line class="b" y2="0.167" transform="translate(7.457 0.591)"/><line class="b" x2="0.003" y2="0.277" transform="translate(7.619 0.481)"/><line class="b" x2="0.003" y2="0.28" transform="translate(8.273 0.476)"/><line class="b" y2="0.167" transform="translate(7.753 0.591)"/><line class="b" y2="0.167" transform="translate(7.883 0.591)"/><line class="b" y2="0.167" transform="translate(8.014 0.588)"/><line class="b" x2="0.003" y2="0.167" transform="translate(8.142 0.588)"/><line class="b" x2="0.003" y2="0.277" transform="translate(8.307 0.476)"/><line class="b" x2="0.003" y2="0.277" transform="translate(8.96 0.468)"/><line class="b" x2="0.003" y2="0.167" transform="translate(8.437 0.586)"/><line class="b" x2="0.003" y2="0.165" transform="translate(8.568 0.586)"/><line class="b" x2="0.003" y2="0.167" transform="translate(8.699 0.583)"/><line class="b" x2="0.003" y2="0.167" transform="translate(8.83 0.58)"/><line class="b" x2="0.003" y2="0.277" transform="translate(8.994 0.468)"/><line class="b" x2="0.008" y2="0.277" transform="translate(9.645 0.455)"/><line class="b" x2="0.003" y2="0.167" transform="translate(9.125 0.575)"/><line class="b" x2="0.003" y2="0.165" transform="translate(9.256 0.575)"/><line class="b" x2="0.003" y2="0.165" transform="translate(9.386 0.572)"/><line class="b" x2="0.003" y2="0.165" transform="translate(9.517 0.57)"/><line class="b" x2="0.005" y2="0.277" transform="translate(9.679 0.455)"/><line class="b" x2="0.008" y2="0.277" transform="translate(10.332 0.437)"/><line class="b" x2="0.005" y2="0.167" transform="translate(9.812 0.562)"/><line class="b" x2="0.005" y2="0.167" transform="translate(9.943 0.559)"/><line class="b" x2="0.005" y2="0.167" transform="translate(10.074 0.554)"/><line class="b" x2="0.005" y2="0.167" transform="translate(10.204 0.552)"/><line class="b" x2="0.01" y2="0.277" transform="translate(10.364 0.437)"/><line class="b" x2="0.01" y2="0.277" transform="translate(11.017 0.413)"/><line class="b" x2="0.005" y2="0.165" transform="translate(10.5 0.544)"/><line class="b" x2="0.005" y2="0.167" transform="translate(10.63 0.538)"/><line class="b" x2="0.005" y2="0.167" transform="translate(10.761 0.533)"/><line class="b" x2="0.005" y2="0.167" transform="translate(10.892 0.528)"/><line class="b" x2="0.01" y2="0.277" transform="translate(11.051 0.413)"/><line class="b" x2="0.013" y2="0.28" transform="translate(11.702 0.382)"/><line class="b" x2="0.008" y2="0.167" transform="translate(11.185 0.518)"/><line class="b" x2="0.008" y2="0.167" transform="translate(11.315 0.512)"/><line class="b" x2="0.008" y2="0.165" transform="translate(11.446 0.507)"/><line class="b" x2="0.008" y2="0.167" transform="translate(11.577 0.499)"/><line class="b" x2="0.013" y2="0.277" transform="translate(11.736 0.382)"/><line class="b" x2="0.016" y2="0.277" transform="translate(12.387 0.345)"/><line class="b" x2="0.008" y2="0.167" transform="translate(11.872 0.486)"/><line class="b" x2="0.008" y2="0.167" transform="translate(12.003 0.478)"/><line class="b" x2="0.008" y2="0.167" transform="translate(12.133 0.47)"/><line class="b" x2="0.008" y2="0.167" transform="translate(12.264 0.463)"/><line class="b" x2="0.016" y2="0.277" transform="translate(12.421 0.342)"/><line class="b" x2="0.024" y2="0.277" transform="translate(13.069 0.295)"/><line class="b" x2="0.01" y2="0.167" transform="translate(12.557 0.444)"/><line class="b" x2="0.01" y2="0.167" transform="translate(12.688 0.437)"/><line class="b" x2="0.013" y2="0.167" transform="translate(12.818 0.426)"/><line class="b" x2="0.013" y2="0.167" transform="translate(12.949 0.416)"/><line class="b" x2="0.024" y2="0.277" transform="translate(13.103 0.293)"/><line class="b" x2="0.031" y2="0.277" transform="translate(13.749 0.23)"/><line class="b" x2="0.016" y2="0.167" transform="translate(13.242 0.392)"/><line class="b" x2="0.016" y2="0.165" transform="translate(13.372 0.382)"/><line class="b" x2="0.016" y2="0.165" transform="translate(13.503 0.369)"/><line class="b" x2="0.018" y2="0.165" transform="translate(13.631 0.355)"/><line class="b" x2="0.031" y2="0.274" transform="translate(13.783 0.227)"/><line class="b" x2="0.05" y2="0.274" transform="translate(14.421 0.136)"/><line class="b" x2="0.021" y2="0.165" transform="translate(13.924 0.322)"/><line class="b" x2="0.021" y2="0.165" transform="translate(14.055 0.306)"/><line class="b" x2="0.024" y2="0.165" transform="translate(14.183 0.288)"/><line class="b" x2="0.029" y2="0.165" transform="translate(14.311 0.267)"/><line class="b" x2="0.052" y2="0.272" transform="translate(14.452 0.131)"/><line class="b" x2="0.269" y2="0.071" transform="translate(14.935)"/><line class="b" x2="0.034" y2="0.162" transform="translate(14.601 0.214)"/><line class="b" x2="0.042" y2="0.162" transform="translate(14.726 0.183)"/><line class="b" x2="0.055" y2="0.157" transform="translate(14.849 0.146)"/><line class="b" x2="0.078" y2="0.146" transform="translate(14.967 0.099)"/></g></g><path class="c" d="M123.536,61.027A14.5,14.5,0,1,1,100.171,49.56q.445-.339.91-.653a14.115,14.115,0,0,1,3.547-1.691,14.512,14.512,0,0,1,8.819,0,14.115,14.115,0,0,1,3.539,1.691q.476.306.918.653A14.46,14.46,0,0,1,123.536,61.027Z"/></g></svg>